<svg width="846" height="88" viewBox="0 0 846 88" fill="none" xmlns="http://www.w3.org/2000/svg" xmlns:xlink="http://www.w3.org/1999/xlink">
<path d="M36.316,86.225C24.557,86.225 15.564,82.731 9.338,75.745C3.113,68.689 0,59.074 0,46.9C0,38.875 1.626,31.889 4.877,25.94C8.197,19.922 12.728,15.287 18.469,12.036C24.211,8.785 30.713,7.159 37.976,7.159C41.02,7.159 43.96,7.367 46.796,7.782C49.632,8.128 52.987,8.612 56.86,9.235C59.766,9.719 61.357,9.961 61.633,9.961L60.492,31.336L50.946,31.336L47.73,16.498C46.969,15.737 45.654,15.114 43.787,14.63C41.919,14.146 39.533,13.904 36.627,13.904C30.748,13.904 26.009,16.636 22.412,22.101C18.884,27.496 17.12,35.348 17.12,45.654C17.12,55.615 18.815,63.743 22.205,70.038C25.594,76.333 30.54,79.48 37.042,79.48C40.155,79.48 42.542,79.203 44.202,78.65C45.931,78.028 47.384,77.163 48.56,76.056L53.125,65.369L61.841,66.199L59.766,82.282C58.313,82.42 56.86,82.697 55.408,83.112C54.024,83.458 53.16,83.665 52.814,83.734C50.047,84.495 47.453,85.083 45.032,85.498C42.68,85.982 39.775,86.225 36.316,86.225Z" fill="#000000"/>
<path d="M74.832,9.235L66.946,7.886L66.946,2.283L86.246,0L86.557,0L89.255,1.971L89.358,25.11L88.632,34.137C90.776,32.2 93.682,30.402 97.348,28.742C101.083,27.081 104.992,26.251 109.073,26.251C113.431,26.251 116.82,27.081 119.241,28.742C121.662,30.333 123.357,32.788 124.326,36.108C125.294,39.429 125.778,43.856 125.778,49.39L125.778,77.924L132.419,78.858L132.419,85.083L105.13,85.083L105.13,78.858L111.148,77.924L111.148,49.39C111.148,45.793 110.906,42.991 110.422,40.985C109.938,38.979 109.038,37.492 107.724,36.524C106.479,35.555 104.611,35.071 102.121,35.071C99.977,35.071 97.763,35.59 95.48,36.627C93.267,37.596 91.295,38.772 89.566,40.155L89.566,77.924L95.895,78.858L95.895,85.083L69.021,85.083L69.021,78.858L74.832,78.028L74.832,9.235Z" fill="#000000"/>
<path d="M138.325,68.897C138.325,62.602 141.472,57.863 147.767,54.682C154.131,51.5 162.328,49.874 172.358,49.805L172.358,47.418C172.358,44.582 172.047,42.369 171.424,40.778C170.871,39.187 169.799,38.011 168.208,37.25C166.686,36.42 164.438,36.005 161.464,36.005C158.074,36.005 155.03,36.454 152.333,37.354C149.635,38.184 146.833,39.29 143.928,40.674L140.712,34.033C141.749,33.134 143.478,32.062 145.9,30.817C148.39,29.572 151.33,28.499 154.719,27.6C158.109,26.632 161.602,26.148 165.199,26.148C170.525,26.148 174.676,26.839 177.65,28.223C180.694,29.606 182.873,31.82 184.187,34.863C185.501,37.907 186.158,41.988 186.158,47.107L186.158,78.858L191.761,78.858L191.761,84.668C190.378,85.014 188.407,85.36 185.847,85.706C183.288,86.052 181.04,86.225 179.103,86.225C176.751,86.225 175.16,85.879 174.33,85.187C173.569,84.495 173.188,83.077 173.188,80.933L173.188,78.131C171.321,80.206 168.9,82.074 165.925,83.734C162.951,85.394 159.596,86.225 155.86,86.225C152.679,86.225 149.739,85.567 147.041,84.253C144.412,82.87 142.303,80.898 140.712,78.339C139.121,75.71 138.325,72.563 138.325,68.897ZM162.501,77.612C163.954,77.612 165.614,77.197 167.482,76.367C169.349,75.468 170.975,74.396 172.358,73.151L172.358,56.134C166.133,56.134 161.464,57.206 158.351,59.351C155.307,61.426 153.785,64.124 153.785,67.444C153.785,70.764 154.546,73.289 156.068,75.018C157.659,76.748 159.803,77.612 162.501,77.612Z" fill="#000000"/>
<path d="M204.048,37.25L197.407,35.382L197.407,28.223L214.63,26.044L214.942,26.044L217.536,28.119L217.536,32.166L217.432,34.656C219.854,32.373 223,30.402 226.874,28.742C230.748,27.081 234.656,26.251 238.6,26.251C242.818,26.251 246.104,27.047 248.456,28.638C250.878,30.16 252.606,32.581 253.644,35.901C254.682,39.221 255.2,43.718 255.2,49.39L255.2,78.028L261.53,78.858L261.53,85.083L234.76,85.083L234.76,78.858L240.364,78.028L240.364,49.39C240.364,45.793 240.122,42.991 239.636,40.985C239.152,38.91 238.254,37.423 236.94,36.524C235.694,35.555 233.896,35.071 231.544,35.071C227.6,35.071 223.382,36.766 218.884,40.155L218.884,77.924L225.11,78.858L225.11,85.083L198.029,85.083L198.029,78.858L204.048,77.924L204.048,37.25Z" fill="#000000"/>
<path d="M274.674,37.25L268.032,35.382L268.032,28.223L285.256,26.044L285.568,26.044L288.162,28.119L288.162,32.166L288.058,34.656C290.48,32.373 293.626,30.402 297.5,28.742C301.374,27.081 305.282,26.251 309.226,26.251C313.444,26.251 316.73,27.047 319.082,28.638C321.504,30.16 323.232,32.581 324.27,35.901C325.308,39.221 325.826,43.718 325.826,49.39L325.826,78.028L332.156,78.858L332.156,85.083L305.386,85.083L305.386,78.858L310.988,78.028L310.988,49.39C310.988,45.793 310.746,42.991 310.262,40.985C309.778,38.91 308.88,37.423 307.564,36.524C306.32,35.555 304.522,35.071 302.17,35.071C298.226,35.071 294.006,36.766 289.51,40.155L289.51,77.924L295.736,78.858L295.736,85.083L268.654,85.083L268.654,78.858L274.674,77.924L274.674,37.25Z" fill="#000000"/>
<path d="M365.636,86.225C356.504,86.225 349.692,83.561 345.194,78.235C340.768,72.84 338.554,65.507 338.554,56.238C338.554,50.012 339.696,44.617 341.978,40.051C344.33,35.486 347.616,31.993 351.836,29.572C356.056,27.151 360.932,25.94 366.466,25.94C373.384,25.94 378.71,27.773 382.444,31.439C386.18,35.036 388.118,40.19 388.256,46.9C388.256,51.465 387.978,54.854 387.426,57.068L353.704,57.068C353.98,63.363 355.468,68.274 358.164,71.802C360.862,75.261 364.702,76.99 369.682,76.99C372.38,76.99 375.146,76.54 377.984,75.641C380.888,74.742 383.172,73.67 384.832,72.424L387.426,78.131C385.558,80.137 382.514,82.005 378.294,83.734C374.144,85.394 369.924,86.225 365.636,86.225ZM373.728,50.842C373.868,48.906 373.936,47.418 373.936,46.381C373.936,37.181 370.858,32.581 364.702,32.581C361.312,32.581 358.684,33.93 356.816,36.627C354.948,39.325 353.91,44.063 353.704,50.842L373.728,50.842Z" fill="#000000"/>
<path d="M402.554,9.235L394.876,7.886L394.876,2.283L414.072,0L414.278,0L417.08,1.971L417.08,78.028L424.654,78.858L424.654,85.083L395.29,85.083L395.29,78.858L402.554,77.924L402.554,9.235Z" fill="#000000"/>
<path d="M464.1,15.772L456.318,14.423L456.318,7.99L471.984,7.99C473.438,7.99 475.686,7.92 478.73,7.782C482.742,7.505 486.372,7.367 489.624,7.367C496.818,7.367 502.49,8.266 506.64,10.065C510.86,11.794 513.834,14.319 515.564,17.639C517.362,20.89 518.262,25.041 518.262,30.09C518.262,38.806 515.53,45.585 510.064,50.427C504.67,55.27 497.164,57.691 487.548,57.691C483.744,57.691 481.012,57.587 479.352,57.379L479.352,77.82L493.256,78.858L493.256,85.083L455.902,85.083L455.902,78.858L464.1,77.82L464.1,15.772ZM479.248,50.739C480.838,51.085 483.536,51.257 487.342,51.257C491.976,51.257 495.676,49.666 498.444,46.484C501.28,43.233 502.698,37.872 502.698,30.402C502.698,24.591 501.418,20.372 498.858,17.743C496.368,15.045 492.53,13.696 487.342,13.696C485.404,13.696 483.398,13.835 481.324,14.111C480.354,14.25 479.664,14.319 479.248,14.319L479.248,50.739Z" fill="#000000"/>
<path d="M523.878,68.897C523.878,62.602 527.026,57.863 533.32,54.682C539.684,51.5 547.882,49.874 557.912,49.805L557.912,47.418C557.912,44.582 557.6,42.369 556.978,40.778C556.424,39.187 555.352,38.011 553.762,37.25C552.24,36.42 549.992,36.005 547.018,36.005C543.628,36.005 540.584,36.454 537.886,37.354C535.188,38.184 532.386,39.29 529.482,40.674L526.266,34.033C527.302,33.134 529.032,32.062 531.454,30.817C533.944,29.572 536.884,28.499 540.272,27.6C543.662,26.632 547.156,26.148 550.752,26.148C556.078,26.148 560.23,26.839 563.204,28.223C566.248,29.606 568.426,31.82 569.74,34.863C571.054,37.907 571.712,41.988 571.712,47.107L571.712,78.858L577.314,78.858L577.314,84.668C575.932,85.014 573.96,85.36 571.4,85.706C568.842,86.052 566.594,86.225 564.656,86.225C562.304,86.225 560.714,85.879 559.884,85.187C559.122,84.495 558.742,83.077 558.742,80.933L558.742,78.131C556.874,80.206 554.454,82.074 551.478,83.734C548.504,85.394 545.15,86.225 541.414,86.225C538.232,86.225 535.292,85.567 532.594,84.253C529.966,82.87 527.856,80.898 526.266,78.339C524.674,75.71 523.878,72.563 523.878,68.897ZM548.054,77.612C549.508,77.612 551.168,77.197 553.036,76.367C554.902,75.468 556.528,74.396 557.912,73.151L557.912,56.134C551.686,56.134 547.018,57.206 543.904,59.351C540.86,61.426 539.338,64.124 539.338,67.444C539.338,70.764 540.1,73.289 541.622,75.018C543.212,76.748 545.356,77.612 548.054,77.612Z" fill="#000000"/>
<path d="M583.79,78.961L590.638,78.131L590.638,37.25L583.998,35.382L583.998,28.223L600.08,26.044L600.392,26.044L602.986,28.119L602.986,30.402L602.674,38.806L602.986,38.806C603.47,37.423 604.612,35.728 606.41,33.722C608.208,31.647 610.456,29.848 613.154,28.326C615.922,26.735 618.896,25.94 622.078,25.94C623.6,25.94 624.914,26.148 626.02,26.563L626.02,42.127C623.946,40.674 621.42,39.948 618.446,39.948C613.396,39.948 609.004,41.296 605.268,43.994L605.268,78.028L617.304,78.961L617.304,85.083L583.79,85.083L583.79,78.961Z" fill="#000000"/>
<path d="M650.062,86.017C645.704,86.017 642.488,85.014 640.412,83.008C638.338,81.002 637.3,77.82 637.3,73.462L637.3,35.382L630.556,35.382L630.556,29.987C631.108,29.779 632.112,29.433 633.564,28.949C635.016,28.396 636.124,27.946 636.884,27.6C638.06,26.701 639.064,25.145 639.894,22.931C640.516,21.478 641.658,17.881 643.318,12.14L651.618,12.14L652.034,27.393L667.908,27.393L667.908,35.382L652.138,35.382L652.138,64.539C652.138,68.412 652.242,71.145 652.448,72.736C652.656,74.327 653.106,75.364 653.798,75.849C654.49,76.264 655.7,76.471 657.43,76.471C659.158,76.471 660.956,76.298 662.824,75.952C664.692,75.537 666.248,75.053 667.494,74.5L669.466,80.31C667.528,81.763 664.692,83.077 660.956,84.253C657.222,85.429 653.59,86.017 650.062,86.017Z" fill="#000000"/>
<path d="M680.796,37.25L674.156,35.382L674.156,28.223L691.38,26.044L691.69,26.044L694.284,28.119L694.284,32.166L694.182,34.656C696.602,32.373 699.75,30.402 703.624,28.742C707.498,27.081 711.406,26.251 715.348,26.251C719.568,26.251 722.854,27.047 725.206,28.638C727.626,30.16 729.356,32.581 730.394,35.901C731.43,39.221 731.95,43.718 731.95,49.39L731.95,78.028L738.28,78.858L738.28,85.083L711.51,85.083L711.51,78.858L717.112,78.028L717.112,49.39C717.112,45.793 716.87,42.991 716.386,40.985C715.902,38.91 715.002,37.423 713.688,36.524C712.442,35.555 710.644,35.071 708.292,35.071C704.35,35.071 700.13,36.766 695.634,40.155L695.634,77.924L701.86,78.858L701.86,85.083L674.778,85.083L674.778,78.858L680.796,77.924L680.796,37.25Z" fill="#000000"/>
<path d="M771.758,86.225C762.628,86.225 755.814,83.561 751.318,78.235C746.89,72.84 744.678,65.507 744.678,56.238C744.678,50.012 745.818,44.617 748.102,40.051C750.454,35.486 753.74,31.993 757.958,29.572C762.178,27.151 767.054,25.94 772.588,25.94C779.506,25.94 784.832,27.773 788.568,31.439C792.304,35.036 794.24,40.19 794.378,46.9C794.378,51.465 794.102,54.854 793.548,57.068L759.826,57.068C760.104,63.363 761.59,68.274 764.288,71.802C766.986,75.261 770.824,76.99 775.806,76.99C778.504,76.99 781.27,76.54 784.106,75.641C787.012,74.742 789.294,73.67 790.954,72.424L793.548,78.131C791.68,80.137 788.638,82.005 784.418,83.734C780.268,85.394 776.048,86.225 771.758,86.225ZM779.852,50.842C779.99,48.906 780.06,47.418 780.06,46.381C780.06,37.181 776.982,32.581 770.824,32.581C767.436,32.581 764.806,33.93 762.94,36.627C761.072,39.325 760.034,44.063 759.826,50.842L779.852,50.842Z" fill="#000000"/>
<path d="M802.658,78.961L809.508,78.131L809.508,37.25L802.866,35.382L802.866,28.223L818.95,26.044L819.26,26.044L821.854,28.119L821.854,30.402L821.544,38.806L821.854,38.806C822.338,37.423 823.48,35.728 825.278,33.722C827.078,31.647 829.326,29.848 832.024,28.326C834.79,26.735 837.764,25.94 840.946,25.94C842.468,25.94 843.782,26.148 844.89,26.563L844.89,42.127C842.814,40.674 840.29,39.948 837.314,39.948C832.266,39.948 827.872,41.296 824.138,43.994L824.138,78.028L836.174,78.961L836.174,85.083L802.658,85.083L802.658,78.961Z" fill="#000000"/>
</svg>
