<svg width="844" height="88" viewBox="0 0 844 88" fill="none" xmlns="http://www.w3.org/2000/svg" xmlns:xlink="http://www.w3.org/1999/xlink">
<path d="M36.278,88C24.531,88 15.548,84.435 9.329,77.304C3.11,70.103 0,60.29 0,47.865C0,39.676 1.624,32.546 4.872,26.474C8.188,20.332 12.714,15.602 18.45,12.284C24.185,8.966 30.681,7.307 37.936,7.307C40.977,7.307 43.913,7.519 46.747,7.942C49.58,8.295 52.931,8.789 56.801,9.425C59.703,9.919 61.292,10.166 61.569,10.166L60.428,31.981L50.893,31.981L47.679,16.838C46.919,16.061 45.606,15.426 43.741,14.931C41.875,14.437 39.491,14.19 36.589,14.19C30.715,14.19 25.982,16.979 22.389,22.556C18.864,28.063 17.102,36.075 17.102,46.594C17.102,56.761 18.795,65.056 22.181,71.48C25.567,77.905 30.508,81.117 37.003,81.117C40.113,81.117 42.497,80.834 44.155,80.27C45.883,79.634 47.334,78.752 48.509,77.622L53.069,66.715L61.776,67.562L59.703,83.976C58.252,84.117 56.801,84.4 55.35,84.823C53.968,85.176 53.104,85.388 52.758,85.458C49.994,86.235 47.403,86.835 44.984,87.259C42.635,87.753 39.733,88 36.278,88Z" fill="#000000"/>
<path d="M74.753,9.425L66.876,8.048L66.876,2.33L86.155,0L86.466,0L89.161,2.012L89.264,25.627L88.539,34.84C90.681,32.863 93.583,31.028 97.245,29.333C100.977,27.639 104.881,26.792 108.958,26.792C113.311,26.792 116.697,27.639 119.116,29.333C121.534,30.957 123.227,33.463 124.195,36.852C125.162,40.241 125.646,44.759 125.646,50.407L125.646,79.528L132.279,80.481L132.279,86.835L105.019,86.835L105.019,80.481L111.031,79.528L111.031,50.407C111.031,46.736 110.789,43.876 110.305,41.829C109.822,39.782 108.923,38.264 107.611,37.276C106.367,36.287 104.501,35.793 102.013,35.793C99.871,35.793 97.66,36.323 95.38,37.381C93.169,38.37 91.199,39.57 89.472,40.982L89.472,79.528L95.794,80.481L95.794,86.835L68.949,86.835L68.949,80.481L74.753,79.634L74.753,9.425Z" fill="#000000"/>
<path d="M138.179,70.315C138.179,63.891 141.324,59.055 147.612,55.807C153.969,52.56 162.157,50.901 172.177,50.83L172.177,48.395C172.177,45.5 171.866,43.241 171.244,41.617C170.691,39.994 169.62,38.793 168.031,38.017C166.511,37.17 164.265,36.746 161.294,36.746C157.908,36.746 154.867,37.205 152.172,38.123C149.477,38.97 146.679,40.099 143.777,41.511L140.563,34.734C141.6,33.816 143.327,32.722 145.746,31.451C148.234,30.181 151.17,29.086 154.556,28.168C157.942,27.18 161.432,26.686 165.025,26.686C170.346,26.686 174.492,27.392 177.463,28.804C180.504,30.216 182.68,32.475 183.993,35.581C185.306,38.688 185.962,42.853 185.962,48.077L185.962,80.481L191.56,80.481L191.56,86.412C190.178,86.765 188.208,87.118 185.651,87.471C183.095,87.824 180.849,88 178.914,88C176.565,88 174.975,87.647 174.146,86.941C173.386,86.235 173.006,84.788 173.006,82.599L173.006,79.74C171.14,81.858 168.722,83.764 165.751,85.458C162.779,87.153 159.428,88 155.696,88C152.518,88 149.581,87.329 146.886,85.988C144.26,84.576 142.153,82.564 140.563,79.952C138.974,77.269 138.179,74.057 138.179,70.315ZM162.33,79.211C163.781,79.211 165.44,78.787 167.305,77.94C169.171,77.022 170.795,75.928 172.177,74.657L172.177,57.29C165.958,57.29 161.294,58.384 158.184,60.573C155.144,62.691 153.623,65.444 153.623,68.833C153.623,72.221 154.384,74.798 155.904,76.563C157.493,78.328 159.635,79.211 162.33,79.211Z" fill="#000000"/>
<path d="M203.832,38.017L197.199,36.111L197.199,28.804L214.404,26.58L214.716,26.58L217.308,28.698L217.308,32.828L217.204,35.369C219.622,33.04 222.766,31.028 226.636,29.333C230.506,27.639 234.41,26.792 238.348,26.792C242.564,26.792 245.846,27.604 248.196,29.227C250.614,30.781 252.342,33.252 253.378,36.64C254.414,40.029 254.932,44.618 254.932,50.407L254.932,79.634L261.256,80.481L261.256,86.835L234.514,86.835L234.514,80.481L240.11,79.634L240.11,50.407C240.11,46.736 239.868,43.876 239.384,41.829C238.902,39.711 238.002,38.193 236.69,37.276C235.446,36.287 233.65,35.793 231.3,35.793C227.362,35.793 223.146,37.523 218.654,40.982L218.654,79.528L224.874,80.481L224.874,86.835L197.821,86.835L197.821,80.481L203.832,79.528L203.832,38.017Z" fill="#000000"/>
<path d="M274.384,38.017L267.75,36.111L267.75,28.804L284.956,26.58L285.268,26.58L287.858,28.698L287.858,32.828L287.754,35.369C290.174,33.04 293.318,31.028 297.188,29.333C301.056,27.639 304.96,26.792 308.9,26.792C313.114,26.792 316.396,27.604 318.746,29.227C321.164,30.781 322.892,33.252 323.928,36.64C324.966,40.029 325.484,44.618 325.484,50.407L325.484,79.634L331.806,80.481L331.806,86.835L305.064,86.835L305.064,80.481L310.662,79.634L310.662,50.407C310.662,46.736 310.42,43.876 309.936,41.829C309.452,39.711 308.554,38.193 307.242,37.276C305.998,36.287 304.2,35.793 301.852,35.793C297.912,35.793 293.698,37.523 289.206,40.982L289.206,79.528L295.424,80.481L295.424,86.835L268.372,86.835L268.372,80.481L274.384,79.528L274.384,38.017Z" fill="#000000"/>
<path d="M365.25,88C356.13,88 349.324,85.282 344.832,79.846C340.41,74.339 338.198,66.856 338.198,57.396C338.198,51.042 339.338,45.536 341.618,40.876C343.968,36.217 347.25,32.651 351.466,30.181C355.68,27.71 360.552,26.474 366.08,26.474C372.99,26.474 378.31,28.345 382.042,32.087C385.774,35.758 387.708,41.017 387.846,47.865C387.846,52.525 387.57,55.984 387.018,58.243L353.33,58.243C353.608,64.667 355.094,69.68 357.788,73.28C360.482,76.81 364.318,78.575 369.294,78.575C371.988,78.575 374.752,78.116 377.586,77.199C380.488,76.281 382.768,75.187 384.426,73.916L387.018,79.74C385.152,81.787 382.112,83.694 377.896,85.458C373.75,87.153 369.536,88 365.25,88ZM373.336,51.889C373.474,49.913 373.542,48.395 373.542,47.336C373.542,37.946 370.468,33.252 364.318,33.252C360.932,33.252 358.306,34.628 356.44,37.381C354.574,40.135 353.538,44.971 353.33,51.889L373.336,51.889Z" fill="#000000"/>
<path d="M402.13,9.425L394.46,8.048L394.46,2.33L413.636,0L413.842,0L416.642,2.012L416.642,79.634L424.208,80.481L424.208,86.835L394.874,86.835L394.874,80.481L402.13,79.528L402.13,9.425Z" fill="#000000"/>
<path d="M463.61,16.096L455.836,14.72L455.836,8.154L471.488,8.154C472.94,8.154 475.184,8.083 478.226,7.942C482.234,7.66 485.86,7.519 489.108,7.519C496.296,7.519 501.962,8.436 506.108,10.272C510.322,12.037 513.294,14.614 515.022,18.002C516.818,21.32 517.716,25.556 517.716,30.71C517.716,39.605 514.986,46.524 509.528,51.466C504.138,56.408 496.64,58.878 487.036,58.878C483.236,58.878 480.506,58.773 478.848,58.561L478.848,79.422L492.736,80.481L492.736,86.835L455.422,86.835L455.422,80.481L463.61,79.422L463.61,16.096ZM478.744,51.783C480.332,52.136 483.028,52.313 486.828,52.313C491.458,52.313 495.154,50.689 497.918,47.442C500.752,44.124 502.168,38.652 502.168,31.028C502.168,25.097 500.89,20.791 498.334,18.108C495.846,15.355 492.01,13.978 486.828,13.978C484.894,13.978 482.89,14.12 480.816,14.402C479.85,14.543 479.158,14.614 478.744,14.614L478.744,51.783Z" fill="#000000"/>
<path d="M523.328,70.315C523.328,63.891 526.472,59.055 532.76,55.807C539.116,52.56 547.304,50.901 557.324,50.83L557.324,48.395C557.324,45.5 557.014,43.241 556.392,41.617C555.838,39.994 554.768,38.793 553.178,38.017C551.658,37.17 549.412,36.746 546.442,36.746C543.056,36.746 540.014,37.205 537.32,38.123C534.626,38.97 531.826,40.099 528.924,41.511L525.712,34.734C526.748,33.816 528.476,32.722 530.894,31.451C533.382,30.181 536.318,29.086 539.704,28.168C543.09,27.18 546.58,26.686 550.172,26.686C555.494,26.686 559.64,27.392 562.61,28.804C565.652,30.216 567.828,32.475 569.14,35.581C570.454,38.688 571.11,42.853 571.11,48.077L571.11,80.481L576.708,80.481L576.708,86.412C575.326,86.765 573.356,87.118 570.8,87.471C568.242,87.824 565.996,88 564.062,88C561.712,88 560.124,87.647 559.294,86.941C558.534,86.235 558.154,84.788 558.154,82.599L558.154,79.74C556.288,81.858 553.87,83.764 550.898,85.458C547.926,87.153 544.576,88 540.844,88C537.666,88 534.728,87.329 532.034,85.988C529.408,84.576 527.3,82.564 525.712,79.952C524.122,77.269 523.328,74.057 523.328,70.315ZM547.478,79.211C548.928,79.211 550.588,78.787 552.452,77.94C554.318,77.022 555.942,75.928 557.324,74.657L557.324,57.29C551.106,57.29 546.442,58.384 543.332,60.573C540.292,62.691 538.772,65.444 538.772,68.833C538.772,72.221 539.532,74.798 541.052,76.563C542.64,78.328 544.782,79.211 547.478,79.211Z" fill="#000000"/>
<path d="M583.176,80.587L590.016,79.74L590.016,38.017L583.382,36.111L583.382,28.804L599.448,26.58L599.76,26.58L602.352,28.698L602.352,31.028L602.04,39.605L602.352,39.605C602.834,38.193 603.974,36.464 605.772,34.416C607.568,32.298 609.814,30.463 612.508,28.91C615.272,27.286 618.244,26.474 621.422,26.474C622.944,26.474 624.256,26.686 625.362,27.11L625.362,42.994C623.288,41.511 620.766,40.77 617.796,40.77C612.75,40.77 608.362,42.147 604.632,44.9L604.632,79.634L616.654,80.587L616.654,86.835L583.176,86.835L583.176,80.587Z" fill="#000000"/>
<path d="M649.378,87.788C645.024,87.788 641.812,86.765 639.738,84.717C637.666,82.67 636.628,79.422 636.628,74.975L636.628,36.111L629.892,36.111L629.892,30.604C630.444,30.392 631.446,30.039 632.898,29.545C634.348,28.98 635.454,28.521 636.214,28.168C637.388,27.251 638.39,25.662 639.22,23.403C639.842,21.921 640.982,18.25 642.64,12.39L650.932,12.39L651.348,27.957L667.206,27.957L667.206,36.111L651.45,36.111L651.45,65.868C651.45,69.821 651.554,72.61 651.762,74.233C651.97,75.857 652.418,76.916 653.11,77.41C653.8,77.834 655.01,78.046 656.736,78.046C658.464,78.046 660.262,77.869 662.126,77.516C663.992,77.093 665.548,76.598 666.792,76.034L668.76,81.964C666.826,83.446 663.992,84.788 660.262,85.988C656.53,87.188 652.902,87.788 649.378,87.788Z" fill="#000000"/>
<path d="M680.08,38.017L673.446,36.111L673.446,28.804L690.652,26.58L690.962,26.58L693.554,28.698L693.554,32.828L693.45,35.369C695.868,33.04 699.014,31.028 702.882,29.333C706.752,27.639 710.656,26.792 714.596,26.792C718.81,26.792 722.092,27.604 724.442,29.227C726.86,30.781 728.588,33.252 729.624,36.64C730.662,40.029 731.18,44.618 731.18,50.407L731.18,79.634L737.502,80.481L737.502,86.835L710.76,86.835L710.76,80.481L716.358,79.634L716.358,50.407C716.358,46.736 716.116,43.876 715.632,41.829C715.148,39.711 714.25,38.193 712.936,37.276C711.692,36.287 709.896,35.793 707.546,35.793C703.608,35.793 699.394,37.523 694.902,40.982L694.902,79.528L701.12,80.481L701.12,86.835L674.068,86.835L674.068,80.481L680.08,79.528L680.08,38.017Z" fill="#000000"/>
<path d="M770.946,88C761.826,88 755.018,85.282 750.528,79.846C746.104,74.339 743.894,66.856 743.894,57.396C743.894,51.042 745.034,45.536 747.314,40.876C749.664,36.217 752.946,32.651 757.16,30.181C761.376,27.71 766.248,26.474 771.776,26.474C778.686,26.474 784.006,28.345 787.738,32.087C791.47,35.758 793.404,41.017 793.542,47.865C793.542,52.525 793.266,55.984 792.714,58.243L759.026,58.243C759.304,64.667 760.788,69.68 763.484,73.28C766.178,76.81 770.014,78.575 774.988,78.575C777.684,78.575 780.448,78.116 783.28,77.199C786.184,76.281 788.464,75.187 790.122,73.916L792.714,79.74C790.848,81.787 787.808,83.694 783.592,85.458C779.446,87.153 775.23,88 770.946,88ZM779.032,51.889C779.17,49.913 779.238,48.395 779.238,47.336C779.238,37.946 776.164,33.252 770.014,33.252C766.628,33.252 764.002,34.628 762.136,37.381C760.27,40.135 759.234,44.971 759.026,51.889L779.032,51.889Z" fill="#000000"/>
<path d="M801.814,80.587L808.656,79.74L808.656,38.017L802.022,36.111L802.022,28.804L818.088,26.58L818.398,26.58L820.99,28.698L820.99,31.028L820.678,39.605L820.99,39.605C821.474,38.193 822.614,36.464 824.41,34.416C826.206,32.298 828.452,30.463 831.148,28.91C833.912,27.286 836.882,26.474 840.062,26.474C841.582,26.474 842.894,26.686 844,27.11L844,42.994C841.928,41.511 839.404,40.77 836.434,40.77C831.39,40.77 827.002,42.147 823.27,44.9L823.27,79.634L835.294,80.587L835.294,86.835L801.814,86.835L801.814,80.587Z" fill="#000000"/>
</svg>
